<svg xmlns="http://www.w3.org/2000/svg" viewBox="0 0 281.13 237.55"><defs><style>.cls-1{fill:#fff;}</style></defs><g id="Layer_2" data-name="Layer 2"><g id="Layer_1-2" data-name="Layer 1"><path class="cls-1" d="M194.24,10.64a3,3,0,0,0-.74-1.91,3,3,0,0,0-2.09-1h-36.3V1.65a1.48,1.48,0,0,0-.52-1.16A1.59,1.59,0,0,0,153.44,0H139.89a1.65,1.65,0,0,0-1.16.49,1.59,1.59,0,0,0-.51,1.16v6.1H101.84a2.81,2.81,0,0,0-2,.81,2.94,2.94,0,0,0-.85,2V43.92h13.1v-24h13.61v23.9h13.14V19.87h15.85v24H167.8v-24h13.32V43.92h13.12Z"/><polygon class="cls-1" points="194.41 109.06 194.41 80.5 194.35 80.5 194.35 80.26 98.97 80.26 98.97 80.5 98.97 90.51 98.97 109.06 111.58 109.06 111.58 90.51 181.64 90.51 181.64 109.06 194.41 109.06"/><polygon class="cls-1" points="166.5 69.58 166.5 77.81 194.34 77.81 194.34 77.61 194.34 69.58 194.34 66.43 194.34 58.19 194.34 54.74 194.34 46.5 181.2 46.5 166.5 46.5 166.5 54.74 181.2 54.74 181.2 58.19 166.5 58.19 166.5 66.43 181.2 66.43 181.2 69.58 166.5 69.58"/><path class="cls-1" d="M140.58,68.2l-10.47,6v2.93h7.78l8.76-5.26,8.79,5.26h7.78V74.16l-10.5-6,9.82-5.84-9.8-6,10.48-6.1V47.16h-7.78l-8.79,5.44-8.78-5.44h-7.76v3.06l10.47,6.1-9.8,6Zm6.07-8.32,4.22,2.49-4.22,2.42-4.22-2.42Z"/><polygon class="cls-1" points="153.08 98.86 165.94 98.86 165.98 93.69 127.04 93.69 127.01 98.86 140.44 98.86 140.44 102.27 123.09 102.27 123.09 93.69 115.34 93.69 115.34 108.3 140.44 108.3 140.44 114.75 129.07 114.75 129.07 120.25 153.08 120.25 153.08 108.3 177.71 108.3 177.71 93.69 169.96 93.69 169.96 102.27 153.08 102.27 153.08 98.86"/><polygon class="cls-1" points="99 77.81 126.8 77.81 126.8 69.58 112.02 69.58 112.02 66.43 126.8 66.43 126.8 58.19 112.02 58.19 112.02 54.74 126.8 54.74 126.8 46.5 112.02 46.5 99 46.5 99 46.5 99 77.61 99 77.61 99 77.81"/><path class="cls-1" d="M39.91,131s-2.15,2.15.45.72l3.19-1.91s8.51,1.44,21.46-6.43a212.49,212.49,0,0,0,19.52-11.83,64.22,64.22,0,0,0,9.18-7c.68-.92-.77-1.17-.9-1.22a35,35,0,0,0-4.81.36c-9.79,1-37.62,6.1-46.12,25.59Z"/><path class="cls-1" d="M25.32,152.37S44.65,142.29,58,130.15c0,0,3.65-2.91-1.15-.69,0,0-16,6.26-22.67,10.54-1.84,1.06-1.94.87-1.29-1a115.28,115.28,0,0,1,17.45-27.35c.31-.26.1-.53-.22-.39a39.91,39.91,0,0,0-7.73,4.42c-5.62,4.21-19.93,19.09-18.25,35.81C23.34,154.58,23.65,155.19,25.32,152.37Zm-1-1.35c0,.11-.06.2-.08.31A2.37,2.37,0,0,1,24.33,151Zm.06-.21a.42.42,0,0,0-.05.21A.59.59,0,0,1,24.39,150.81Z"/><path class="cls-1" d="M22.35,180.2s2,3.5,2.24,2.68c.11-.43-1.17-2.89-1.17-3.89-.05-2.81,2.6-8.25,5.35-11.37C39,156,40.84,147.75,40.05,146.68c0,0-2.73,3.17-4.44,4.8,0,0-9.44,9.61-10.28,10.37-3.28,3.12-3.35,4.37-5.31.49-2.32-4.57-3.37-18.17.4-29.57.11-.24-.06-.42-.43-.22C10,138.73,1,167.11,22.35,180.2Z"/><path class="cls-1" d="M39.47,202.29a1.39,1.39,0,0,0-.3-.16,2.85,2.85,0,0,1,.3.16c3.61,2,8.57,3.51,1.17-1.06a39.72,39.72,0,0,0-2-22.85C37.32,175.06,38,174,34.22,169a.61.61,0,0,0-1.1.16c-.66,2.92-3,13-3.37,19.06-.13,3.3,0,4.86,0,4.86s-3.8-4.88-16.18-13C7.13,176,4.73,173.36.78,168.56c-.41-.45-.78-.07-.78.19C.38,181.57,9.94,205.09,39.47,202.29Zm-.69-.37c-.22-.11-.42-.24-.5-.27A3,3,0,0,1,38.78,201.92Z"/><path class="cls-1" d="M66.32,213.67s4.13-1.9,7.67-1.13c3.38.27,3.34-1.07-2.95-1.94,0,0-7.53-11.06-19.1-16.65a12.71,12.71,0,0,0-3.51-1.35c-.15-.06-.53.13-.53.24a9.35,9.35,0,0,0-.27,4.9c.77,2.94,4.6,9.51,8.95,11.39,0,0-3.52-.36-3.3-.35-8-1.17-21.72-4-37.74-2.06-4,.59-9.35-.57-11.35-.62-.7-.06-.89.4-.7.62a25.6,25.6,0,0,0,7.63,6.17C17.77,216.37,43.62,223.07,66.32,213.67Z"/><path class="cls-1" d="M134.05,199.18c-1.17.41-4.24,1-6.12,1.44-25.64,6.13-54.16.86-54.16.86a29.14,29.14,0,0,1-4.14-.73c-.59-.19-.65.55-.55.73,1.78,3.74,9.25,7.36,13.9,9.75,6.71,2.83.56,4.32.56,4.32-25.11,8.06-40.91,11.53-40.91,11.53-4.4.85-7.49,1.07-10.11,1.59-.64.09-.73.75-.06.94A39.81,39.81,0,0,0,40.39,231c39.78,1.7,78.32-18.31,88.63-26.48C131.75,202.26,132.84,201.32,134.05,199.18Z"/><path class="cls-1" d="M280,140.09c-.69.7-1.31,1.33-2.48,2.73,0,0-8.77,8.69-24.93,13.57-17.87,5.39-52.37,22.6-53.8,29.27-.43,2.55-3.61.93-5.77,1.33,0,0-23.75,2.29-54.35,19.27,0,0-6.1,3.44-18.47,10.84,0,0-14.86,9.12-22.06,11.87a156.43,156.43,0,0,1-26.46,7.45c-1.88.31-2.37.76.13.85,6,.28,15.1.59,22.3-.33A98.91,98.91,0,0,0,109,234.6c23.14-5.27,51.54-14.46,74.73-33.85,1.77-1.67,4.46-3.36-.9,4-4.39,6-6.36,11-6.95,15.35-.1.81.51.57.51.57l9.68-2.79,8.5-2.26a.6.6,0,0,0,.66-.59c2.66-12.93,3.26-22.07,7.46-23.32,7-2.1,37.43,8.79,40.15,9s24.47-6.38,21.82-8.15c-3.06-2.09-17.88-4.59-31-6.34-4.15-.68-9.52-1.74-.86-3.5,11-2.16,46.82-13.47,48.15-39.44a7.22,7.22,0,0,0-.35-3.14C280.55,140,280.29,139.73,280,140.09Z"/><path class="cls-1" d="M258.71,141.31c-1.72,1.51-2.19,2.07-2,1.76a11.89,11.89,0,0,0,.49-7.76,23.4,23.4,0,0,0-5.75-9.62c-.34-.31-.63-.15-.64.1,0,.87-.08,2.67-.1,3.34-.1,3.09-2.23,13.16-5.51,21.89-1.48,1.87-5.37,6,1.59,1.51l1.61-.2c5.51-.38,36.38-12,32.38-37.52-.42-1.82-1-4.33-2-5.69-.32-.42-.65-.21-.68,0,0,2-.5,3.12-1.09,5.59a45.73,45.73,0,0,1-13.26,21.36S261.31,138.69,258.71,141.31Z"/><path class="cls-1" d="M258.45,120.09s-1.44-2.6-8.62-8.38a29,29,0,0,0-8.12-3.94c.49,2,2.14,3.89,3.15,5.84,0,0,8.28,12.58,13.26,15.85,1,2.8,1.36,7.13,1.66.24,8.35-5.21,19.05-18.89,7.94-34.67-2.45-3.07-6.16-6.25-10.34-7.48,1.64,1.23,3.33,4.83,4.38,8.47C262.51,99.22,265.9,114.18,258.45,120.09Zm-.55,8.7a1.4,1.4,0,0,0-.08-.22.86.86,0,0,1,.08.22,4.5,4.5,0,0,1,.17.54A4.59,4.59,0,0,0,257.9,128.79Z"/><path class="cls-1" d="M219.05,77a32.42,32.42,0,0,1,3.89,1.71c5.66,2.78,24.49,12.34,27.6,22.29,0,0,2,2.91-2.49.92,0,0-15.83-6-22.72-6.17,1,2.67,14.18,12.42,27.68,13.54a5,5,0,0,1,2.3.66c.8.5,4,6,1.27-.39,4.36-7.18-2.17-24.24-27.58-31a88.41,88.41,0,0,0-9.85-2.14C218.78,76.38,218.31,76.78,219.05,77Z"/><path class="cls-1" d="M198.61,83.87a87.83,87.83,0,0,0,8.74,4.19c6.91,2.89,19,8.91,30.88,6.15,6,2.86,6,1.88.78-.45.36-1.09-4.35-9.15-29.52-11a67.34,67.34,0,0,0-10.61,0C198.37,82.87,197.9,83.58,198.61,83.87Z"/><path class="cls-1" d="M63.33,129.52c-17.49,13.55-25.94,28.26-23.06,41.41,2,8.94,8.23,16.06,18.71,21,23.22,11,63.85,9.68,106.72-3.34,20.73-6.31,38.75-14.59,52.44-23.8,13.31-8.93,22.5-18.67,26.37-28.17,3.26-8.09,2.48-15.52-1.87-22.35-10.27-16-28.51-19.46-35.23-21.08a2,2,0,0,0-1.14-.08,3,3,0,0,0-1.42,1.31c-.33.32.18.44.29.46,3.75,1,10.4,2.29,17.14,5.33a4,4,0,0,0-1.39,1.42c-2,.73-5,3.15-6.84,4.33a26.64,26.64,0,0,0-12.71-4.33c-2.26,0-3,1.87-2.56,2.7.94,1.27,1.58,2.66,1.14,4-5.35,8.36-15.84,7.9-20.62,8a26.26,26.26,0,0,0-11.46,3.06,11.22,11.22,0,0,0-6.3.78c-4,1.88-2.52,5.23-1.09,5.88,2.54.79,2.25,1.5,1,1.83-2.79.56-1.64,1.7-.5,2.15,3.14,1.83.74,2.07-.37,2.75a9.08,9.08,0,0,1-7.77.11c-1-1.93-2.55-1.93-2.95-.79a4.17,4.17,0,0,1-3.72,2.54c.24,1.83-2,1.64-3.26,1.39-.19.85-1.69,1.4-3.24,1.15-3-.37-.83-2-1.51-2.84s-4.45,1.94-5.23-1.21c.06-2.4,1.16-2.91,3.66-2.4,1.39,1,2.31.09,2.34-1.86-.23-3.71-5.29-3.15-6.51-3-1.56.45-2,.33-2.38-.77-2.15-2.49-4-.14-4.63,1.44s-1,1.47-2.33.4a3.18,3.18,0,0,0-2.12-1.07,3.9,3.9,0,0,1-2.19-1.09c-.51-.57-1.06-.71-2.43-1.38-1.63-.54-4.54-1.6-6.39-2.2s-2-.89-1.54-2.4c.66-2.2,0-2.26-.74-3a13.33,13.33,0,0,0-4.7-1.39,15.7,15.7,0,0,1-7.3-2.69c-.48-.34-.86-.46-1.18-.34v-.07A152.09,152.09,0,0,0,63.33,129.52ZM191,147.69l1.42-.29c3.28-.61,14.16-6,15.27-6.75a44.06,44.06,0,0,1,4-2.17,6.72,6.72,0,0,0,2.75.5,8.23,8.23,0,0,1,3.34-1c.78,0,1.49-.09,2.1-.14-3.82,5.79-10.51,11.45-19.27,16.67Zm6.72,8.54c-10.85,6.05-24.4,11.46-39.24,15.86a207.44,207.44,0,0,1-23.92,5.58l.44-12.76a210.2,210.2,0,0,0,21-5c14.78-4.26,24.67-7.33,31.13-11.27Zm-66.32,9.33-.51,12.7c-12.69,1.88-24.48,2.29-34.61,1.14a5.83,5.83,0,0,1,.95-1.57c.06-1.19.94-1.77,1.55-3.61,1.49-1.84,4.76-3.77,6.69-5.71a3,3,0,0,1,1.44-1.17c1.38.07,2.77.1,4.21.07,1.75,2.58,4,2.3,5.81,2.51,2.84,0,5.19-1.91,7-3.3C126.47,166.31,129,166,131.41,165.56Zm-67.36-5.29c-2.11-8.12,3-17.05,13.12-25.4l10.74.49C81.5,140.67,78.31,146,78.57,151s2.71,8,6.37,10.31l-15.58,7.87A19,19,0,0,1,64.05,160.27Zm15.16,7.32c-.18.67-.36,1.31-.6,1.95.2.93-.37,3-1.22,5a31.67,31.67,0,0,1-5.46-3.21Zm19.88-22.93c-1.06.59-2,1.18-5.11.82-4-1.18-6,1.2-6,3.15.1,1.23,2,.37,3,1.31.63.9,0,2.06.4,3.25l2.95,2.15c3.11,1.38,2.14,2,.64,2.74-1.35.75-1.28,1.13-3.5,1.37a8.57,8.57,0,0,1-1.79.72c-4.31-2.19-7.39-4.54-7.65-9.93-.17-4,3.24-9,9.81-14.16a10.62,10.62,0,0,1,3.39.07c3.49.57,6.67,3.52,7.91,4.45C105.85,142.72,100.41,144.3,99.09,144.66Zm4.16-15.9c.35-.2.7-.41,1.06-.57C104,128.39,103.62,128.57,103.25,128.76Zm-59.4,41.16c-2.57-11.45,4.73-24.15,18.36-35.72l10.58.49c-9.73,8.6-14.44,17.86-12.23,26.52A21.37,21.37,0,0,0,66,170.85l-17.4,8.8A23.46,23.46,0,0,1,43.85,169.92Zm6.94,12.16,17.69-9a35,35,0,0,0,7.3,4.49,1.46,1.46,0,0,0-.19.25c-5.09,4.8-2.45,7.09-1.55,8.59,1,2.55-.54,5.2-.27,6.85A64.84,64.84,0,0,1,61,189,36.39,36.39,0,0,1,50.79,182.08Zm26,11.82c2.4-1.81,6.22-6.39,7.52-7.36,1.49-1.35,6.72-3.28,8.8-4a1.31,1.31,0,0,1,.24-.17c10.83,1.48,23.62,1.22,37.41-.83l-.47,11.89C110.07,196.61,91.59,196.79,76.81,193.9Zm87.61-8.39a251.22,251.22,0,0,1-30.37,7.27l.41-11.84a207.23,207.23,0,0,0,25.25-5.88c15.51-4.61,29.62-10.37,40.85-16.8l10.2,7.3C198.1,173.2,182.32,180.1,164.42,185.51Zm49.19-21.7-10.15-7.25c10.4-6.37,17.93-13.27,21.31-20.41a18.75,18.75,0,0,0,3.67-3.89l3.62-1c1.65-.35,2.73.24,4.12,1.15a4.37,4.37,0,0,0,5.27-.59,1.57,1.57,0,0,1,1-.2,22.5,22.5,0,0,1-1.21,3.82C237.29,145.05,227.63,154.83,213.61,163.81Zm8.54-54.49c.72-.5.28,0,.94-.91s2.24-.87,3.37-.35a4.88,4.88,0,0,0,4.15.64,12.73,12.73,0,0,1,1.42-.29c.89-.22,1.3-.57,1.08-1.27a34.25,34.25,0,0,1,6.62,8.12,22.28,22.28,0,0,1,3.24,13l-.47-.49c-1.42-1-2.44-.19-3.49.15-1,1.73-2.2,1.23-3.61.2-1.1-.81-2.55-2.14-3.82-3.14-1.52-1-2.11-.25-3.18.09a3.47,3.47,0,0,0-1.41.74,18.37,18.37,0,0,0-2.82-8.5,24.86,24.86,0,0,0-4.55-5.39c.15-.24.29-.52.47-.84C220.2,111,221.44,109.89,222.15,109.32ZM197.9,123.84s-2.68-.59.43,0,3.17,1.21,5.32,1.89a28.12,28.12,0,0,0,10.72.9c4.8-.79,3.12-2.91,1-4.56-4.63-2-2.71-3.38-1.82-3.63a8.34,8.34,0,0,0,3.79-4,2.4,2.4,0,0,1,.31-.58,22.35,22.35,0,0,1,3.55,4.36,15.73,15.73,0,0,1,1.9,12.44,3.36,3.36,0,0,1-1.68-1c-.79-.79-1-.78-2.35-.94,0,0-6.3,0-8.29,1.77-3.49,1.29-7.82-.24-9.48-1.54a9.36,9.36,0,0,1-2.9-2.58,5.89,5.89,0,0,1-2.71-.68C191.75,123.25,197.9,123.84,197.9,123.84Zm-51.56,27.91c3.56-2.82,3.9-1.73,5.53-3.18.85-.82,1.87-2.34,3.24-2.24,2.69.17,1.5,1.88,4.29,3,4.48,1.36,6.94,3.46,7.1,4.28,0,0,.3-.1.85-.22-3.73,1.15-7.89,2.35-12.54,3.68q-10,2.9-19.21,4.63a2.35,2.35,0,0,1-.47-.4l.08-1.85a4,4,0,0,1,.65-1c2.53-1.4,4.88-1.84,5.64-2.33C144.13,155,145.15,152.89,146.34,151.75Zm-20.47-3.57a8.38,8.38,0,0,1,3.06,0s2.89-1.43,6.14-2.74a64.68,64.68,0,0,1,8.07-2.37c1.66-1.19,1.76-1.1,2.4-.74.75.83.45.87-.53,2.33-2.52,3.33-3.5,5.09-6.41,6.58A34,34,0,0,1,125.23,150C123.75,149.94,125,147.47,125.87,148.18Zm-18.38-24.62a108.19,108.19,0,0,0-12.35,6.64,18.92,18.92,0,0,1-2.73-.74c-2.32-.8-3.59,2.19-3.61,3,0,0-.06.09-.09.14l-8.14-.36A122.81,122.81,0,0,1,103,119.51c.29.19.49.32.59.37a31.65,31.65,0,0,1,3,2.15A4.39,4.39,0,0,1,107.49,123.56Zm-8.25-5.81a2.67,2.67,0,0,1,.59.19A115.68,115.68,0,0,0,76,132l-10.53-.47a144.15,144.15,0,0,1,23.85-14.77,8,8,0,0,0,2.66.64C94.08,117.54,97.59,117.42,99.24,117.75Z"/></g></g></svg>